<svg width="1280" height="80" viewBox="0 0 1280 80" fill="none" xmlns="http://www.w3.org/2000/svg">
<rect width="1280" height="80" fill="white"/>
<path d="M437.793 42.3481H440.137C440.015 43.4712 439.693 44.4762 439.172 45.3633C438.652 46.2503 437.915 46.9543 436.963 47.4751C436.011 47.9878 434.823 48.2441 433.398 48.2441C432.357 48.2441 431.409 48.0488 430.554 47.6582C429.708 47.2676 428.979 46.7142 428.369 45.998C427.759 45.2738 427.287 44.4071 426.953 43.3979C426.628 42.3807 426.465 41.2495 426.465 40.0044V38.2344C426.465 36.9893 426.628 35.8621 426.953 34.853C427.287 33.8358 427.763 32.965 428.381 32.2407C429.008 31.5164 429.761 30.959 430.64 30.5684C431.519 30.1777 432.507 29.9824 433.606 29.9824C434.949 29.9824 436.084 30.2347 437.012 30.7393C437.939 31.2438 438.66 31.9437 439.172 32.8389C439.693 33.7259 440.015 34.7554 440.137 35.9272H437.793C437.679 35.0972 437.467 34.3851 437.158 33.791C436.849 33.1888 436.41 32.7249 435.84 32.3994C435.27 32.0739 434.526 31.9111 433.606 31.9111C432.817 31.9111 432.121 32.0617 431.519 32.3628C430.924 32.6639 430.424 33.0911 430.017 33.6445C429.618 34.1979 429.317 34.8612 429.114 35.6343C428.91 36.4074 428.809 37.266 428.809 38.21V40.0044C428.809 40.8752 428.898 41.693 429.077 42.458C429.264 43.223 429.545 43.8944 429.919 44.4722C430.294 45.05 430.77 45.5057 431.348 45.8394C431.925 46.1649 432.609 46.3276 433.398 46.3276C434.399 46.3276 435.197 46.1689 435.791 45.8516C436.385 45.5342 436.833 45.0785 437.134 44.4844C437.443 43.8903 437.663 43.1782 437.793 42.3481ZM445.264 29.25V48H443.005V29.25H445.264ZM444.727 40.8955L443.787 40.8589C443.795 39.9556 443.929 39.1214 444.189 38.3564C444.45 37.5833 444.816 36.9119 445.288 36.3423C445.76 35.7726 446.322 35.3332 446.973 35.0239C447.632 34.7065 448.36 34.5479 449.158 34.5479C449.809 34.5479 450.395 34.6374 450.916 34.8164C451.436 34.9873 451.88 35.264 452.246 35.6465C452.62 36.029 452.905 36.5254 453.101 37.1357C453.296 37.738 453.394 38.4744 453.394 39.3452V48H451.123V39.3208C451.123 38.6291 451.021 38.0757 450.818 37.6606C450.614 37.2375 450.317 36.9323 449.927 36.7451C449.536 36.5498 449.056 36.4521 448.486 36.4521C447.925 36.4521 447.412 36.5701 446.948 36.8062C446.493 37.0422 446.098 37.3677 445.764 37.7827C445.439 38.1978 445.182 38.6738 444.995 39.2109C444.816 39.7399 444.727 40.3014 444.727 40.8955ZM462.256 48.2441C461.336 48.2441 460.502 48.0895 459.753 47.7803C459.013 47.4629 458.374 47.0194 457.837 46.4497C457.308 45.88 456.901 45.2046 456.616 44.4233C456.331 43.6421 456.189 42.7876 456.189 41.8599V41.3472C456.189 40.2729 456.348 39.3167 456.665 38.4785C456.982 37.6322 457.414 36.916 457.959 36.3301C458.504 35.7441 459.123 35.3006 459.814 34.9995C460.506 34.6984 461.222 34.5479 461.963 34.5479C462.907 34.5479 463.721 34.7106 464.404 35.0361C465.096 35.3617 465.662 35.8174 466.101 36.4033C466.541 36.9811 466.866 37.6647 467.078 38.4541C467.289 39.2354 467.395 40.0898 467.395 41.0176V42.0308H457.532V40.1875H465.137V40.0166C465.104 39.4307 464.982 38.861 464.771 38.3076C464.567 37.7542 464.242 37.2985 463.794 36.9404C463.346 36.5824 462.736 36.4033 461.963 36.4033C461.45 36.4033 460.978 36.5132 460.547 36.7329C460.116 36.9445 459.745 37.2619 459.436 37.6851C459.127 38.1082 458.887 38.625 458.716 39.2354C458.545 39.8457 458.459 40.5496 458.459 41.3472V41.8599C458.459 42.4865 458.545 43.0765 458.716 43.6299C458.895 44.1751 459.151 44.6553 459.485 45.0703C459.827 45.4854 460.238 45.8109 460.718 46.0469C461.206 46.2829 461.759 46.4009 462.378 46.4009C463.175 46.4009 463.851 46.2381 464.404 45.9126C464.958 45.5871 465.442 45.1517 465.857 44.6064L467.224 45.6929C466.939 46.1242 466.577 46.5352 466.138 46.9258C465.698 47.3164 465.157 47.6338 464.514 47.8779C463.879 48.1221 463.127 48.2441 462.256 48.2441ZM475.317 46.3887C475.854 46.3887 476.351 46.2788 476.807 46.0591C477.262 45.8394 477.637 45.5382 477.93 45.1558C478.223 44.7651 478.389 44.3216 478.43 43.8252H480.579C480.538 44.6064 480.273 45.3348 479.785 46.0103C479.305 46.6776 478.674 47.2188 477.893 47.6338C477.112 48.0407 476.253 48.2441 475.317 48.2441C474.325 48.2441 473.458 48.0692 472.717 47.7192C471.985 47.3693 471.375 46.8892 470.886 46.2788C470.406 45.6685 470.044 44.9686 469.8 44.1792C469.564 43.3817 469.446 42.5394 469.446 41.6523V41.1396C469.446 40.2526 469.564 39.4144 469.8 38.625C470.044 37.8275 470.406 37.1235 470.886 36.5132C471.375 35.9028 471.985 35.4227 472.717 35.0728C473.458 34.7228 474.325 34.5479 475.317 34.5479C476.351 34.5479 477.254 34.7594 478.027 35.1826C478.8 35.5977 479.407 36.1673 479.846 36.8916C480.294 37.6077 480.538 38.4215 480.579 39.333H478.43C478.389 38.7878 478.235 38.2954 477.966 37.856C477.706 37.4165 477.348 37.0666 476.892 36.8062C476.444 36.5376 475.92 36.4033 475.317 36.4033C474.626 36.4033 474.044 36.5417 473.572 36.8184C473.108 37.0869 472.738 37.4531 472.461 37.917C472.192 38.3727 471.997 38.8813 471.875 39.4429C471.761 39.9963 471.704 40.5618 471.704 41.1396V41.6523C471.704 42.2301 471.761 42.7998 471.875 43.3613C471.989 43.9229 472.18 44.4315 472.449 44.8872C472.725 45.3429 473.096 45.7091 473.56 45.9858C474.032 46.2544 474.618 46.3887 475.317 46.3887ZM485.388 29.25V48H483.118V29.25H485.388ZM493.457 34.792L487.695 40.9565L484.473 44.3013L484.29 41.8965L486.597 39.1377L490.698 34.792H493.457ZM491.394 48L486.682 41.7012L487.854 39.687L494.055 48H491.394ZM501.392 41.5425V41.2617C501.392 40.3096 501.53 39.4266 501.807 38.6128C502.083 37.7909 502.482 37.0788 503.003 36.4766C503.524 35.8662 504.154 35.3942 504.895 35.0605C505.636 34.7188 506.466 34.5479 507.385 34.5479C508.313 34.5479 509.147 34.7188 509.888 35.0605C510.636 35.3942 511.271 35.8662 511.792 36.4766C512.321 37.0788 512.724 37.7909 513 38.6128C513.277 39.4266 513.416 40.3096 513.416 41.2617V41.5425C513.416 42.4946 513.277 43.3776 513 44.1914C512.724 45.0052 512.321 45.7173 511.792 46.3276C511.271 46.9299 510.64 47.4019 509.9 47.7437C509.167 48.0773 508.337 48.2441 507.41 48.2441C506.482 48.2441 505.648 48.0773 504.907 47.7437C504.167 47.4019 503.532 46.9299 503.003 46.3276C502.482 45.7173 502.083 45.0052 501.807 44.1914C501.53 43.3776 501.392 42.4946 501.392 41.5425ZM503.65 41.2617V41.5425C503.65 42.2017 503.727 42.8242 503.882 43.4102C504.036 43.988 504.268 44.5007 504.578 44.9482C504.895 45.3958 505.29 45.7498 505.762 46.0103C506.234 46.2625 506.783 46.3887 507.41 46.3887C508.028 46.3887 508.569 46.2625 509.033 46.0103C509.505 45.7498 509.896 45.3958 510.205 44.9482C510.514 44.5007 510.746 43.988 510.901 43.4102C511.064 42.8242 511.145 42.2017 511.145 41.5425V41.2617C511.145 40.6107 511.064 39.9963 510.901 39.4185C510.746 38.8325 510.51 38.3158 510.193 37.8682C509.884 37.4124 509.493 37.0544 509.021 36.7939C508.557 36.5335 508.012 36.4033 507.385 36.4033C506.767 36.4033 506.222 36.5335 505.75 36.7939C505.286 37.0544 504.895 37.4124 504.578 37.8682C504.268 38.3158 504.036 38.8325 503.882 39.4185C503.727 39.9963 503.65 40.6107 503.65 41.2617ZM524.329 44.9482V34.792H526.599V48H524.438L524.329 44.9482ZM524.756 42.165L525.696 42.1406C525.696 43.0195 525.602 43.8333 525.415 44.582C525.236 45.3226 524.943 45.9655 524.536 46.5107C524.129 47.056 523.596 47.4832 522.937 47.7925C522.278 48.0936 521.476 48.2441 520.532 48.2441C519.889 48.2441 519.299 48.1506 518.762 47.9634C518.233 47.7762 517.778 47.4873 517.395 47.0967C517.013 46.7061 516.715 46.1974 516.504 45.5708C516.3 44.9442 516.199 44.1914 516.199 43.3125V34.792H518.457V43.3369C518.457 43.931 518.522 44.4233 518.652 44.814C518.791 45.1965 518.974 45.5016 519.202 45.7295C519.438 45.9492 519.698 46.1038 519.983 46.1934C520.276 46.2829 520.577 46.3276 520.886 46.3276C521.847 46.3276 522.607 46.1445 523.169 45.7783C523.73 45.404 524.133 44.9035 524.377 44.2769C524.63 43.6421 524.756 42.9382 524.756 42.165ZM532.3 36.8672V48H530.042V34.792H532.239L532.3 36.8672ZM536.426 34.7188L536.414 36.8184C536.226 36.7777 536.047 36.7533 535.876 36.7451C535.714 36.7288 535.527 36.7207 535.315 36.7207C534.794 36.7207 534.334 36.8021 533.936 36.9648C533.537 37.1276 533.199 37.3555 532.922 37.6484C532.646 37.9414 532.426 38.2913 532.263 38.6982C532.109 39.097 532.007 39.5365 531.958 40.0166L531.323 40.3828C531.323 39.5853 531.401 38.8366 531.555 38.1367C531.718 37.4368 531.966 36.8184 532.3 36.2812C532.633 35.736 533.057 35.3128 533.569 35.0117C534.09 34.7025 534.709 34.5479 535.425 34.5479C535.588 34.5479 535.775 34.5682 535.986 34.6089C536.198 34.6414 536.344 34.6781 536.426 34.7188ZM546.973 37.6118V48H544.714V34.792H546.851L546.973 37.6118ZM546.436 40.8955L545.496 40.8589C545.504 39.9556 545.638 39.1214 545.898 38.3564C546.159 37.5833 546.525 36.9119 546.997 36.3423C547.469 35.7726 548.031 35.3332 548.682 35.0239C549.341 34.7065 550.069 34.5479 550.867 34.5479C551.518 34.5479 552.104 34.6374 552.625 34.8164C553.145 34.9873 553.589 35.264 553.955 35.6465C554.329 36.029 554.614 36.5254 554.81 37.1357C555.005 37.738 555.103 38.4744 555.103 39.3452V48H552.832V39.3208C552.832 38.6291 552.73 38.0757 552.527 37.6606C552.323 37.2375 552.026 36.9323 551.636 36.7451C551.245 36.5498 550.765 36.4521 550.195 36.4521C549.634 36.4521 549.121 36.5701 548.657 36.8062C548.201 37.0422 547.807 37.3677 547.473 37.7827C547.148 38.1978 546.891 38.6738 546.704 39.2109C546.525 39.7399 546.436 40.3014 546.436 40.8955ZM564.014 48.2441C563.094 48.2441 562.26 48.0895 561.511 47.7803C560.771 47.4629 560.132 47.0194 559.595 46.4497C559.066 45.88 558.659 45.2046 558.374 44.4233C558.089 43.6421 557.947 42.7876 557.947 41.8599V41.3472C557.947 40.2729 558.105 39.3167 558.423 38.4785C558.74 37.6322 559.172 36.916 559.717 36.3301C560.262 35.7441 560.881 35.3006 561.572 34.9995C562.264 34.6984 562.98 34.5479 563.721 34.5479C564.665 34.5479 565.479 34.7106 566.162 35.0361C566.854 35.3617 567.419 35.8174 567.859 36.4033C568.298 36.9811 568.624 37.6647 568.835 38.4541C569.047 39.2354 569.153 40.0898 569.153 41.0176V42.0308H559.29V40.1875H566.895V40.0166C566.862 39.4307 566.74 38.861 566.528 38.3076C566.325 37.7542 565.999 37.2985 565.552 36.9404C565.104 36.5824 564.494 36.4033 563.721 36.4033C563.208 36.4033 562.736 36.5132 562.305 36.7329C561.873 36.9445 561.503 37.2619 561.194 37.6851C560.885 38.1082 560.645 38.625 560.474 39.2354C560.303 39.8457 560.217 40.5496 560.217 41.3472V41.8599C560.217 42.4865 560.303 43.0765 560.474 43.6299C560.653 44.1751 560.909 44.6553 561.243 45.0703C561.584 45.4854 561.995 45.8109 562.476 46.0469C562.964 46.2829 563.517 46.4009 564.136 46.4009C564.933 46.4009 565.609 46.2381 566.162 45.9126C566.715 45.5871 567.2 45.1517 567.615 44.6064L568.982 45.6929C568.697 46.1242 568.335 46.5352 567.896 46.9258C567.456 47.3164 566.915 47.6338 566.272 47.8779C565.637 48.1221 564.884 48.2441 564.014 48.2441ZM575.134 45.6562L578.528 34.792H580.017L579.724 36.9526L576.27 48H574.817L575.134 45.6562ZM572.852 34.792L575.745 45.7783L575.952 48H574.426L570.593 34.792H572.852ZM583.264 45.6929L586.023 34.792H588.269L584.436 48H582.922L583.264 45.6929ZM580.347 34.792L583.667 45.4731L584.045 48H582.605L579.053 36.9282L578.76 34.792H580.347ZM602.319 34.792V36.5254H595.178V34.792H602.319ZM597.595 31.5815H599.854V44.7285C599.854 45.1761 599.923 45.5138 600.061 45.7417C600.199 45.9696 600.378 46.1201 600.598 46.1934C600.818 46.2666 601.054 46.3032 601.306 46.3032C601.493 46.3032 601.689 46.2869 601.892 46.2544C602.104 46.2137 602.262 46.1812 602.368 46.1567L602.38 48C602.201 48.057 601.965 48.1099 601.672 48.1587C601.388 48.2157 601.042 48.2441 600.635 48.2441C600.081 48.2441 599.573 48.1343 599.109 47.9146C598.645 47.6948 598.275 47.3286 597.998 46.8159C597.729 46.2951 597.595 45.5952 597.595 44.7163V31.5815ZM604.126 41.5425V41.2617C604.126 40.3096 604.264 39.4266 604.541 38.6128C604.818 37.7909 605.216 37.0788 605.737 36.4766C606.258 35.8662 606.889 35.3942 607.629 35.0605C608.37 34.7188 609.2 34.5479 610.12 34.5479C611.047 34.5479 611.882 34.7188 612.622 35.0605C613.371 35.3942 614.006 35.8662 614.526 36.4766C615.055 37.0788 615.458 37.7909 615.735 38.6128C616.012 39.4266 616.15 40.3096 616.15 41.2617V41.5425C616.15 42.4946 616.012 43.3776 615.735 44.1914C615.458 45.0052 615.055 45.7173 614.526 46.3276C614.006 46.9299 613.375 47.4019 612.634 47.7437C611.902 48.0773 611.072 48.2441 610.144 48.2441C609.216 48.2441 608.382 48.0773 607.642 47.7437C606.901 47.4019 606.266 46.9299 605.737 46.3276C605.216 45.7173 604.818 45.0052 604.541 44.1914C604.264 43.3776 604.126 42.4946 604.126 41.5425ZM606.384 41.2617V41.5425C606.384 42.2017 606.462 42.8242 606.616 43.4102C606.771 43.988 607.003 44.5007 607.312 44.9482C607.629 45.3958 608.024 45.7498 608.496 46.0103C608.968 46.2625 609.517 46.3887 610.144 46.3887C610.763 46.3887 611.304 46.2625 611.768 46.0103C612.24 45.7498 612.63 45.3958 612.939 44.9482C613.249 44.5007 613.481 43.988 613.635 43.4102C613.798 42.8242 613.879 42.2017 613.879 41.5425V41.2617C613.879 40.6107 613.798 39.9963 613.635 39.4185C613.481 38.8325 613.245 38.3158 612.927 37.8682C612.618 37.4124 612.227 37.0544 611.755 36.7939C611.292 36.5335 610.746 36.4033 610.12 36.4033C609.501 36.4033 608.956 36.5335 608.484 36.7939C608.02 37.0544 607.629 37.4124 607.312 37.8682C607.003 38.3158 606.771 38.8325 606.616 39.4185C606.462 39.9963 606.384 40.6107 606.384 41.2617ZM621.252 29.25V48H618.982V29.25H621.252ZM629.321 34.792L623.56 40.9565L620.337 44.3013L620.154 41.8965L622.461 39.1377L626.562 34.792H629.321ZM627.258 48L622.546 41.7012L623.718 39.687L629.919 48H627.258ZM636.89 48.2441C635.97 48.2441 635.136 48.0895 634.387 47.7803C633.647 47.4629 633.008 47.0194 632.471 46.4497C631.942 45.88 631.535 45.2046 631.25 44.4233C630.965 43.6421 630.823 42.7876 630.823 41.8599V41.3472C630.823 40.2729 630.981 39.3167 631.299 38.4785C631.616 37.6322 632.048 36.916 632.593 36.3301C633.138 35.7441 633.757 35.3006 634.448 34.9995C635.14 34.6984 635.856 34.5479 636.597 34.5479C637.541 34.5479 638.354 34.7106 639.038 35.0361C639.73 35.3617 640.295 35.8174 640.735 36.4033C641.174 36.9811 641.5 37.6647 641.711 38.4541C641.923 39.2354 642.029 40.0898 642.029 41.0176V42.0308H632.166V40.1875H639.771V40.0166C639.738 39.4307 639.616 38.861 639.404 38.3076C639.201 37.7542 638.875 37.2985 638.428 36.9404C637.98 36.5824 637.37 36.4033 636.597 36.4033C636.084 36.4033 635.612 36.5132 635.181 36.7329C634.749 36.9445 634.379 37.2619 634.07 37.6851C633.761 38.1082 633.521 38.625 633.35 39.2354C633.179 39.8457 633.093 40.5496 633.093 41.3472V41.8599C633.093 42.4865 633.179 43.0765 633.35 43.6299C633.529 44.1751 633.785 44.6553 634.119 45.0703C634.46 45.4854 634.871 45.8109 635.352 46.0469C635.84 46.2829 636.393 46.4009 637.012 46.4009C637.809 46.4009 638.485 46.2381 639.038 45.9126C639.591 45.5871 640.076 45.1517 640.491 44.6064L641.858 45.6929C641.573 46.1242 641.211 46.5352 640.771 46.9258C640.332 47.3164 639.791 47.6338 639.148 47.8779C638.513 48.1221 637.76 48.2441 636.89 48.2441ZM646.924 37.6118V48H644.666V34.792H646.802L646.924 37.6118ZM646.387 40.8955L645.447 40.8589C645.455 39.9556 645.589 39.1214 645.85 38.3564C646.11 37.5833 646.476 36.9119 646.948 36.3423C647.42 35.7726 647.982 35.3332 648.633 35.0239C649.292 34.7065 650.02 34.5479 650.818 34.5479C651.469 34.5479 652.055 34.6374 652.576 34.8164C653.097 34.9873 653.54 35.264 653.906 35.6465C654.281 36.029 654.565 36.5254 654.761 37.1357C654.956 37.738 655.054 38.4744 655.054 39.3452V48H652.783V39.3208C652.783 38.6291 652.681 38.0757 652.478 37.6606C652.275 37.2375 651.978 36.9323 651.587 36.7451C651.196 36.5498 650.716 36.4521 650.146 36.4521C649.585 36.4521 649.072 36.5701 648.608 36.8062C648.153 37.0422 647.758 37.3677 647.424 37.7827C647.099 38.1978 646.842 38.6738 646.655 39.2109C646.476 39.7399 646.387 40.3014 646.387 40.8955ZM657.886 41.5425V41.2617C657.886 40.3096 658.024 39.4266 658.301 38.6128C658.577 37.7909 658.976 37.0788 659.497 36.4766C660.018 35.8662 660.649 35.3942 661.389 35.0605C662.13 34.7188 662.96 34.5479 663.879 34.5479C664.807 34.5479 665.641 34.7188 666.382 35.0605C667.131 35.3942 667.765 35.8662 668.286 36.4766C668.815 37.0788 669.218 37.7909 669.495 38.6128C669.771 39.4266 669.91 40.3096 669.91 41.2617V41.5425C669.91 42.4946 669.771 43.3776 669.495 44.1914C669.218 45.0052 668.815 45.7173 668.286 46.3276C667.765 46.9299 667.135 47.4019 666.394 47.7437C665.662 48.0773 664.832 48.2441 663.904 48.2441C662.976 48.2441 662.142 48.0773 661.401 47.7437C660.661 47.4019 660.026 46.9299 659.497 46.3276C658.976 45.7173 658.577 45.0052 658.301 44.1914C658.024 43.3776 657.886 42.4946 657.886 41.5425ZM660.144 41.2617V41.5425C660.144 42.2017 660.221 42.8242 660.376 43.4102C660.531 43.988 660.763 44.5007 661.072 44.9482C661.389 45.3958 661.784 45.7498 662.256 46.0103C662.728 46.2625 663.277 46.3887 663.904 46.3887C664.522 46.3887 665.063 46.2625 665.527 46.0103C665.999 45.7498 666.39 45.3958 666.699 44.9482C667.008 44.5007 667.24 43.988 667.395 43.4102C667.558 42.8242 667.639 42.2017 667.639 41.5425V41.2617C667.639 40.6107 667.558 39.9963 667.395 39.4185C667.24 38.8325 667.004 38.3158 666.687 37.8682C666.378 37.4124 665.987 37.0544 665.515 36.7939C665.051 36.5335 664.506 36.4033 663.879 36.4033C663.261 36.4033 662.716 36.5335 662.244 36.7939C661.78 37.0544 661.389 37.4124 661.072 37.8682C660.763 38.3158 660.531 38.8325 660.376 39.4185C660.221 39.9963 660.144 40.6107 660.144 41.2617ZM674.988 37.4165V48H672.717V34.792H674.866L674.988 37.4165ZM674.524 40.8955L673.474 40.8589C673.482 39.9556 673.6 39.1214 673.828 38.3564C674.056 37.5833 674.394 36.9119 674.841 36.3423C675.289 35.7726 675.846 35.3332 676.514 35.0239C677.181 34.7065 677.954 34.5479 678.833 34.5479C679.451 34.5479 680.021 34.6374 680.542 34.8164C681.063 34.9873 681.514 35.2599 681.897 35.6343C682.279 36.0086 682.576 36.4888 682.788 37.0747C683 37.6606 683.105 38.3687 683.105 39.1987V48H680.847V39.3086C680.847 38.6169 680.729 38.0635 680.493 37.6484C680.265 37.2334 679.94 36.9323 679.517 36.7451C679.093 36.5498 678.597 36.4521 678.027 36.4521C677.36 36.4521 676.803 36.5701 676.355 36.8062C675.907 37.0422 675.549 37.3677 675.281 37.7827C675.012 38.1978 674.817 38.6738 674.695 39.2109C674.581 39.7399 674.524 40.3014 674.524 40.8955ZM683.081 39.6504L681.567 40.1143C681.576 39.39 681.694 38.6942 681.921 38.0269C682.157 37.3595 682.495 36.7655 682.935 36.2446C683.382 35.7238 683.931 35.3128 684.583 35.0117C685.234 34.7025 685.978 34.5479 686.816 34.5479C687.524 34.5479 688.151 34.6414 688.696 34.8286C689.25 35.0158 689.714 35.3047 690.088 35.6953C690.47 36.0778 690.759 36.5701 690.955 37.1724C691.15 37.7746 691.248 38.4907 691.248 39.3208V48H688.977V39.2964C688.977 38.5558 688.859 37.9821 688.623 37.5752C688.395 37.1602 688.07 36.8713 687.646 36.7085C687.231 36.5376 686.735 36.4521 686.157 36.4521C685.661 36.4521 685.221 36.5376 684.839 36.7085C684.456 36.8794 684.135 37.1154 683.875 37.4165C683.614 37.7095 683.415 38.0472 683.276 38.4297C683.146 38.8122 683.081 39.2191 683.081 39.6504ZM697.119 34.792V48H694.849V34.792H697.119ZM694.678 31.2886C694.678 30.9224 694.788 30.6131 695.007 30.3608C695.235 30.1086 695.569 29.9824 696.008 29.9824C696.44 29.9824 696.769 30.1086 696.997 30.3608C697.233 30.6131 697.351 30.9224 697.351 31.2886C697.351 31.6385 697.233 31.9396 696.997 32.1919C696.769 32.436 696.44 32.5581 696.008 32.5581C695.569 32.5581 695.235 32.436 695.007 32.1919C694.788 31.9396 694.678 31.6385 694.678 31.2886ZM706.03 46.3887C706.567 46.3887 707.064 46.2788 707.52 46.0591C707.975 45.8394 708.35 45.5382 708.643 45.1558C708.936 44.7651 709.102 44.3216 709.143 43.8252H711.292C711.251 44.6064 710.986 45.3348 710.498 46.0103C710.018 46.6776 709.387 47.2188 708.606 47.6338C707.825 48.0407 706.966 48.2441 706.03 48.2441C705.037 48.2441 704.171 48.0692 703.43 47.7192C702.698 47.3693 702.087 46.8892 701.599 46.2788C701.119 45.6685 700.757 44.9686 700.513 44.1792C700.277 43.3817 700.159 42.5394 700.159 41.6523V41.1396C700.159 40.2526 700.277 39.4144 700.513 38.625C700.757 37.8275 701.119 37.1235 701.599 36.5132C702.087 35.9028 702.698 35.4227 703.43 35.0728C704.171 34.7228 705.037 34.5479 706.03 34.5479C707.064 34.5479 707.967 34.7594 708.74 35.1826C709.513 35.5977 710.12 36.1673 710.559 36.8916C711.007 37.6077 711.251 38.4215 711.292 39.333H709.143C709.102 38.7878 708.948 38.2954 708.679 37.856C708.419 37.4165 708.061 37.0666 707.605 36.8062C707.157 36.5376 706.632 36.4033 706.03 36.4033C705.339 36.4033 704.757 36.5417 704.285 36.8184C703.821 37.0869 703.451 37.4531 703.174 37.917C702.905 38.3727 702.71 38.8813 702.588 39.4429C702.474 39.9963 702.417 40.5618 702.417 41.1396V41.6523C702.417 42.2301 702.474 42.7998 702.588 43.3613C702.702 43.9229 702.893 44.4315 703.162 44.8872C703.438 45.3429 703.809 45.7091 704.272 45.9858C704.744 46.2544 705.33 46.3887 706.03 46.3887ZM727.82 45.7417V38.9424C727.82 38.4215 727.714 37.9699 727.502 37.5874C727.299 37.1968 726.99 36.8957 726.575 36.6841C726.16 36.4725 725.647 36.3667 725.037 36.3667C724.467 36.3667 723.966 36.4644 723.535 36.6597C723.112 36.855 722.778 37.1113 722.534 37.4287C722.298 37.7461 722.18 38.0879 722.18 38.4541H719.922C719.922 37.9821 720.044 37.5142 720.288 37.0503C720.532 36.5864 720.882 36.1673 721.338 35.793C721.802 35.4105 722.355 35.1094 722.998 34.8896C723.649 34.6618 724.373 34.5479 725.171 34.5479C726.131 34.5479 726.978 34.7106 727.71 35.0361C728.451 35.3617 729.028 35.854 729.443 36.5132C729.867 37.1642 730.078 37.9821 730.078 38.9668V45.1191C730.078 45.5586 730.115 46.0265 730.188 46.5229C730.269 47.0194 730.387 47.4466 730.542 47.8047V48H728.186C728.072 47.7396 727.983 47.3937 727.917 46.9624C727.852 46.5229 727.82 46.116 727.82 45.7417ZM728.21 39.9922L728.235 41.5791H725.952C725.309 41.5791 724.736 41.632 724.231 41.7378C723.726 41.8354 723.303 41.986 722.961 42.1895C722.62 42.3929 722.359 42.6493 722.18 42.9585C722.001 43.2596 721.912 43.6136 721.912 44.0205C721.912 44.4355 722.005 44.814 722.192 45.1558C722.38 45.4976 722.66 45.7702 723.035 45.9736C723.417 46.1689 723.885 46.2666 724.438 46.2666C725.13 46.2666 725.741 46.1201 726.27 45.8271C726.799 45.5342 727.218 45.1761 727.527 44.7529C727.844 44.3298 728.015 43.9188 728.04 43.52L729.004 44.6064C728.947 44.9482 728.792 45.3267 728.54 45.7417C728.288 46.1567 727.95 46.5555 727.527 46.938C727.112 47.3123 726.615 47.6257 726.038 47.8779C725.468 48.1221 724.825 48.2441 724.109 48.2441C723.214 48.2441 722.428 48.0692 721.753 47.7192C721.086 47.3693 720.565 46.9014 720.19 46.3154C719.824 45.7214 719.641 45.0581 719.641 44.3257C719.641 43.6177 719.779 42.9951 720.056 42.458C720.333 41.9128 720.732 41.4611 721.252 41.103C721.773 40.7368 722.4 40.4601 723.132 40.2729C723.865 40.0858 724.683 39.9922 725.586 39.9922H728.21ZM735.889 37.6118V48H733.63V34.792H735.767L735.889 37.6118ZM735.352 40.8955L734.412 40.8589C734.42 39.9556 734.554 39.1214 734.814 38.3564C735.075 37.5833 735.441 36.9119 735.913 36.3423C736.385 35.7726 736.947 35.3332 737.598 35.0239C738.257 34.7065 738.985 34.5479 739.783 34.5479C740.434 34.5479 741.02 34.6374 741.541 34.8164C742.061 34.9873 742.505 35.264 742.871 35.6465C743.245 36.029 743.53 36.5254 743.726 37.1357C743.921 37.738 744.019 38.4744 744.019 39.3452V48H741.748V39.3208C741.748 38.6291 741.646 38.0757 741.443 37.6606C741.239 37.2375 740.942 36.9323 740.552 36.7451C740.161 36.5498 739.681 36.4521 739.111 36.4521C738.55 36.4521 738.037 36.5701 737.573 36.8062C737.118 37.0422 736.723 37.3677 736.389 37.7827C736.064 38.1978 735.807 38.6738 735.62 39.2109C735.441 39.7399 735.352 40.3014 735.352 40.8955ZM755.774 45.4365V29.25H758.044V48H755.969L755.774 45.4365ZM746.887 41.5425V41.2861C746.887 40.277 747.009 39.3615 747.253 38.5396C747.506 37.7095 747.86 36.9974 748.315 36.4033C748.779 35.8092 749.329 35.3535 749.963 35.0361C750.606 34.7106 751.322 34.5479 752.112 34.5479C752.942 34.5479 753.666 34.6943 754.285 34.9873C754.911 35.2721 755.44 35.6912 755.872 36.2446C756.311 36.7899 756.657 37.4491 756.909 38.2222C757.161 38.9953 757.336 39.8701 757.434 40.8467V41.9697C757.345 42.9382 757.17 43.8089 756.909 44.582C756.657 45.3551 756.311 46.0143 755.872 46.5596C755.44 47.1048 754.911 47.5239 754.285 47.8169C753.658 48.1017 752.926 48.2441 752.087 48.2441C751.314 48.2441 750.606 48.0773 749.963 47.7437C749.329 47.41 748.779 46.9421 748.315 46.3398C747.86 45.7376 747.506 45.0296 747.253 44.2158C747.009 43.3939 746.887 42.5028 746.887 41.5425ZM749.158 41.2861V41.5425C749.158 42.2017 749.223 42.8201 749.353 43.3979C749.491 43.9757 749.703 44.4844 749.988 44.9238C750.273 45.3633 750.635 45.7091 751.074 45.9614C751.514 46.2056 752.039 46.3276 752.649 46.3276C753.398 46.3276 754.012 46.1689 754.492 45.8516C754.98 45.5342 755.371 45.1151 755.664 44.5942C755.957 44.0734 756.185 43.5078 756.348 42.8975V39.9556C756.25 39.508 756.108 39.0767 755.92 38.6616C755.741 38.2384 755.505 37.8641 755.212 37.5386C754.928 37.2049 754.574 36.9404 754.15 36.7451C753.735 36.5498 753.243 36.4521 752.673 36.4521C752.055 36.4521 751.522 36.5824 751.074 36.8428C750.635 37.0951 750.273 37.445 749.988 37.8926C749.703 38.332 749.491 38.8447 749.353 39.4307C749.223 40.0085 749.158 40.627 749.158 41.2861ZM773.047 46.3887C773.584 46.3887 774.08 46.2788 774.536 46.0591C774.992 45.8394 775.366 45.5382 775.659 45.1558C775.952 44.7651 776.119 44.3216 776.16 43.8252H778.308C778.267 44.6064 778.003 45.3348 777.515 46.0103C777.035 46.6776 776.404 47.2188 775.623 47.6338C774.841 48.0407 773.983 48.2441 773.047 48.2441C772.054 48.2441 771.187 48.0692 770.447 47.7192C769.714 47.3693 769.104 46.8892 768.616 46.2788C768.136 45.6685 767.773 44.9686 767.529 44.1792C767.293 43.3817 767.175 42.5394 767.175 41.6523V41.1396C767.175 40.2526 767.293 39.4144 767.529 38.625C767.773 37.8275 768.136 37.1235 768.616 36.5132C769.104 35.9028 769.714 35.4227 770.447 35.0728C771.187 34.7228 772.054 34.5479 773.047 34.5479C774.08 34.5479 774.984 34.7594 775.757 35.1826C776.53 35.5977 777.136 36.1673 777.576 36.8916C778.023 37.6077 778.267 38.4215 778.308 39.333H776.16C776.119 38.7878 775.964 38.2954 775.696 37.856C775.435 37.4165 775.077 37.0666 774.622 36.8062C774.174 36.5376 773.649 36.4033 773.047 36.4033C772.355 36.4033 771.773 36.5417 771.301 36.8184C770.837 37.0869 770.467 37.4531 770.19 37.917C769.922 38.3727 769.727 38.8813 769.604 39.4429C769.491 39.9963 769.434 40.5618 769.434 41.1396V41.6523C769.434 42.2301 769.491 42.7998 769.604 43.3613C769.718 43.9229 769.91 44.4315 770.178 44.8872C770.455 45.3429 770.825 45.7091 771.289 45.9858C771.761 46.2544 772.347 46.3887 773.047 46.3887ZM780.249 41.5425V41.2617C780.249 40.3096 780.387 39.4266 780.664 38.6128C780.941 37.7909 781.34 37.0788 781.86 36.4766C782.381 35.8662 783.012 35.3942 783.752 35.0605C784.493 34.7188 785.323 34.5479 786.243 34.5479C787.17 34.5479 788.005 34.7188 788.745 35.0605C789.494 35.3942 790.129 35.8662 790.649 36.4766C791.178 37.0788 791.581 37.7909 791.858 38.6128C792.135 39.4266 792.273 40.3096 792.273 41.2617V41.5425C792.273 42.4946 792.135 43.3776 791.858 44.1914C791.581 45.0052 791.178 45.7173 790.649 46.3276C790.129 46.9299 789.498 47.4019 788.757 47.7437C788.025 48.0773 787.195 48.2441 786.267 48.2441C785.339 48.2441 784.505 48.0773 783.765 47.7437C783.024 47.4019 782.389 46.9299 781.86 46.3276C781.34 45.7173 780.941 45.0052 780.664 44.1914C780.387 43.3776 780.249 42.4946 780.249 41.5425ZM782.507 41.2617V41.5425C782.507 42.2017 782.585 42.8242 782.739 43.4102C782.894 43.988 783.126 44.5007 783.435 44.9482C783.752 45.3958 784.147 45.7498 784.619 46.0103C785.091 46.2625 785.64 46.3887 786.267 46.3887C786.886 46.3887 787.427 46.2625 787.891 46.0103C788.363 45.7498 788.753 45.3958 789.062 44.9482C789.372 44.5007 789.604 43.988 789.758 43.4102C789.921 42.8242 790.002 42.2017 790.002 41.5425V41.2617C790.002 40.6107 789.921 39.9963 789.758 39.4185C789.604 38.8325 789.368 38.3158 789.05 37.8682C788.741 37.4124 788.35 37.0544 787.878 36.7939C787.415 36.5335 786.869 36.4033 786.243 36.4033C785.624 36.4033 785.079 36.5335 784.607 36.7939C784.143 37.0544 783.752 37.4124 783.435 37.8682C783.126 38.3158 782.894 38.8325 782.739 39.4185C782.585 39.9963 782.507 40.6107 782.507 41.2617ZM797.363 37.6118V48H795.105V34.792H797.241L797.363 37.6118ZM796.826 40.8955L795.886 40.8589C795.894 39.9556 796.029 39.1214 796.289 38.3564C796.549 37.5833 796.916 36.9119 797.388 36.3423C797.86 35.7726 798.421 35.3332 799.072 35.0239C799.731 34.7065 800.46 34.5479 801.257 34.5479C801.908 34.5479 802.494 34.6374 803.015 34.8164C803.536 34.9873 803.979 35.264 804.346 35.6465C804.72 36.029 805.005 36.5254 805.2 37.1357C805.396 37.738 805.493 38.4744 805.493 39.3452V48H803.223V39.3208C803.223 38.6291 803.121 38.0757 802.917 37.6606C802.714 37.2375 802.417 36.9323 802.026 36.7451C801.636 36.5498 801.156 36.4521 800.586 36.4521C800.024 36.4521 799.512 36.5701 799.048 36.8062C798.592 37.0422 798.197 37.3677 797.864 37.7827C797.538 38.1978 797.282 38.6738 797.095 39.2109C796.916 39.7399 796.826 40.3014 796.826 40.8955ZM814.209 46.3887C814.746 46.3887 815.243 46.2788 815.698 46.0591C816.154 45.8394 816.528 45.5382 816.821 45.1558C817.114 44.7651 817.281 44.3216 817.322 43.8252H819.47C819.43 44.6064 819.165 45.3348 818.677 46.0103C818.197 46.6776 817.566 47.2188 816.785 47.6338C816.003 48.0407 815.145 48.2441 814.209 48.2441C813.216 48.2441 812.349 48.0692 811.609 47.7192C810.876 47.3693 810.266 46.8892 809.778 46.2788C809.298 45.6685 808.936 44.9686 808.691 44.1792C808.455 43.3817 808.337 42.5394 808.337 41.6523V41.1396C808.337 40.2526 808.455 39.4144 808.691 38.625C808.936 37.8275 809.298 37.1235 809.778 36.5132C810.266 35.9028 810.876 35.4227 811.609 35.0728C812.349 34.7228 813.216 34.5479 814.209 34.5479C815.243 34.5479 816.146 34.7594 816.919 35.1826C817.692 35.5977 818.298 36.1673 818.738 36.8916C819.185 37.6077 819.43 38.4215 819.47 39.333H817.322C817.281 38.7878 817.126 38.2954 816.858 37.856C816.597 37.4165 816.239 37.0666 815.784 36.8062C815.336 36.5376 814.811 36.4033 814.209 36.4033C813.517 36.4033 812.935 36.5417 812.463 36.8184C812 37.0869 811.629 37.4531 811.353 37.917C811.084 38.3727 810.889 38.8813 810.767 39.4429C810.653 39.9963 810.596 40.5618 810.596 41.1396V41.6523C810.596 42.2301 810.653 42.7998 810.767 43.3613C810.881 43.9229 811.072 44.4315 811.34 44.8872C811.617 45.3429 811.987 45.7091 812.451 45.9858C812.923 46.2544 813.509 46.3887 814.209 46.3887ZM827.49 48.2441C826.571 48.2441 825.736 48.0895 824.988 47.7803C824.247 47.4629 823.608 47.0194 823.071 46.4497C822.542 45.88 822.135 45.2046 821.851 44.4233C821.566 43.6421 821.423 42.7876 821.423 41.8599V41.3472C821.423 40.2729 821.582 39.3167 821.899 38.4785C822.217 37.6322 822.648 36.916 823.193 36.3301C823.739 35.7441 824.357 35.3006 825.049 34.9995C825.741 34.6984 826.457 34.5479 827.197 34.5479C828.141 34.5479 828.955 34.7106 829.639 35.0361C830.33 35.3617 830.896 35.8174 831.335 36.4033C831.775 36.9811 832.1 37.6647 832.312 38.4541C832.524 39.2354 832.629 40.0898 832.629 41.0176V42.0308H822.766V40.1875H830.371V40.0166C830.339 39.4307 830.216 38.861 830.005 38.3076C829.801 37.7542 829.476 37.2985 829.028 36.9404C828.581 36.5824 827.97 36.4033 827.197 36.4033C826.685 36.4033 826.213 36.5132 825.781 36.7329C825.35 36.9445 824.98 37.2619 824.67 37.6851C824.361 38.1082 824.121 38.625 823.95 39.2354C823.779 39.8457 823.694 40.5496 823.694 41.3472V41.8599C823.694 42.4865 823.779 43.0765 823.95 43.6299C824.129 44.1751 824.386 44.6553 824.719 45.0703C825.061 45.4854 825.472 45.8109 825.952 46.0469C826.44 46.2829 826.994 46.4009 827.612 46.4009C828.41 46.4009 829.085 46.2381 829.639 45.9126C830.192 45.5871 830.676 45.1517 831.091 44.6064L832.458 45.6929C832.174 46.1242 831.812 46.5352 831.372 46.9258C830.933 47.3164 830.391 47.6338 829.749 47.8779C829.114 48.1221 828.361 48.2441 827.49 48.2441ZM837.524 37.3311V53.0781H835.254V34.792H837.329L837.524 37.3311ZM846.423 41.2861V41.5425C846.423 42.5028 846.309 43.3939 846.082 44.2158C845.854 45.0296 845.52 45.7376 845.081 46.3398C844.649 46.9421 844.116 47.41 843.481 47.7437C842.847 48.0773 842.118 48.2441 841.296 48.2441C840.458 48.2441 839.718 48.1058 839.075 47.8291C838.432 47.5524 837.887 47.1496 837.439 46.6206C836.991 46.0916 836.633 45.4569 836.365 44.7163C836.104 43.9757 835.925 43.1416 835.828 42.2139V40.8467C835.925 39.8701 836.108 38.9953 836.377 38.2222C836.646 37.4491 837 36.7899 837.439 36.2446C837.887 35.6912 838.428 35.2721 839.062 34.9873C839.697 34.6943 840.43 34.5479 841.26 34.5479C842.09 34.5479 842.826 34.7106 843.469 35.0361C844.112 35.3535 844.653 35.8092 845.093 36.4033C845.532 36.9974 845.862 37.7095 846.082 38.5396C846.309 39.3615 846.423 40.277 846.423 41.2861ZM844.153 41.5425V41.2861C844.153 40.627 844.084 40.0085 843.945 39.4307C843.807 38.8447 843.591 38.332 843.298 37.8926C843.014 37.445 842.647 37.0951 842.2 36.8428C841.752 36.5824 841.219 36.4521 840.601 36.4521C840.031 36.4521 839.535 36.5498 839.111 36.7451C838.696 36.9404 838.342 37.2049 838.049 37.5386C837.756 37.8641 837.516 38.2384 837.329 38.6616C837.15 39.0767 837.016 39.508 836.926 39.9556V43.1172C837.089 43.6868 837.317 44.224 837.61 44.7285C837.903 45.2249 838.293 45.6278 838.782 45.937C839.27 46.2381 839.884 46.3887 840.625 46.3887C841.235 46.3887 841.76 46.2625 842.2 46.0103C842.647 45.7498 843.014 45.3958 843.298 44.9482C843.591 44.5007 843.807 43.988 843.945 43.4102C844.084 42.8242 844.153 42.2017 844.153 41.5425ZM854.834 34.792V36.5254H847.693V34.792H854.834ZM850.11 31.5815H852.368V44.7285C852.368 45.1761 852.437 45.5138 852.576 45.7417C852.714 45.9696 852.893 46.1201 853.113 46.1934C853.333 46.2666 853.569 46.3032 853.821 46.3032C854.008 46.3032 854.203 46.2869 854.407 46.2544C854.618 46.2137 854.777 46.1812 854.883 46.1567L854.895 48C854.716 48.057 854.48 48.1099 854.187 48.1587C853.902 48.2157 853.556 48.2441 853.149 48.2441C852.596 48.2441 852.087 48.1343 851.624 47.9146C851.16 47.6948 850.789 47.3286 850.513 46.8159C850.244 46.2951 850.11 45.5952 850.11 44.7163V31.5815Z" fill="black"/>
</svg>
