<?xml version="1.0" encoding="UTF-8"?> <svg xmlns="http://www.w3.org/2000/svg" width="320" height="65" viewBox="0 0 320 65"> <g id="Group_843" data-name="Group 843" transform="translate(1443 -5100)"> <g id="Group_833" data-name="Group 833"> <rect id="Rectangle_2082" data-name="Rectangle 2082" width="320" height="65" transform="translate(-1443 5100)" fill="#f2f2f2"></rect> <text id="About_Lottery_draw_type_" data-name="About Lottery draw type " transform="translate(-1283 5131)" font-size="17" font-family="Roboto-Light, Roboto" font-weight="300"> <tspan x="-90.761" y="0">About Lottery draw type </tspan> </text> <path id="Path_1141" data-name="Path 1141" d="M12480.155-3942.3v12.47h19.827v-1.448h1.285v-1.532h1.49v-1.527h1.406v-1.611h1.6v-1.6h1.442v-1.518h1.254v-1.574h1.354v-1.53Z" transform="translate(-13859.001 9079.086)" fill="#00a0e3"></path> <path id="Path_1140" data-name="Path 1140" d="M12481.166-3846.634h21.083v-3.03h3.007v-3h2.9v-3.135h2.623v-3.215h-29.608Z" transform="translate(-13819.006 8995.854)" fill="#0d709a"></path> <path id="Path_1137" data-name="Path 1137" d="M12482.154-3686.725V-3699.1h29.133v4.12h-4.846v4.077h-4.817v4.18Z" transform="translate(-13738.154 8836.102)" fill="#78516e"></path> <path id="Path_1138" data-name="Path 1138" d="M12482.154-3609.66h19.738v-8.164h9.916v-4.214h-29.654Z" transform="translate(-13698 8759.167)" fill="#7a2a48"></path> <path id="Path_1139" data-name="Path 1139" d="M-680.845-2900.3v12.377h21.095v-3.034h3v-3h2.9v-3.136h2.625v-3.208Z" transform="translate(-616.155 8037.303)" fill="#617294"></path> </g> </g> </svg> 