<?xml version="1.0" encoding="UTF-8"?> <svg xmlns="http://www.w3.org/2000/svg" xmlns:xlink="http://www.w3.org/1999/xlink" width="276" height="421" viewBox="0 0 276 421"> <defs> <filter id="Rectangle_1233" x="32" y="6" width="59" height="53" filterUnits="userSpaceOnUse"> <feOffset dy="2"></feOffset> <feGaussianBlur stdDeviation="5" result="blur"></feGaussianBlur> <feFlood flood-color="#cfcfcf"></feFlood> <feComposite operator="in" in2="blur"></feComposite> <feComposite in="SourceGraphic"></feComposite> </filter> <filter id="Rectangle_1229" x="32" y="45" width="59" height="53" filterUnits="userSpaceOnUse"> <feOffset dy="2"></feOffset> <feGaussianBlur stdDeviation="5" result="blur-2"></feGaussianBlur> <feFlood flood-color="#cfcfcf"></feFlood> <feComposite operator="in" in2="blur-2"></feComposite> <feComposite in="SourceGraphic"></feComposite> </filter> <filter id="Rectangle_1225" x="32" y="84" width="59" height="53" filterUnits="userSpaceOnUse"> <feOffset dy="2"></feOffset> <feGaussianBlur stdDeviation="5" result="blur-3"></feGaussianBlur> <feFlood flood-color="#cfcfcf"></feFlood> <feComposite operator="in" in2="blur-3"></feComposite> <feComposite in="SourceGraphic"></feComposite> </filter> <filter id="Rectangle_1221" x="32" y="123" width="59" height="54" filterUnits="userSpaceOnUse"> <feOffset dy="2"></feOffset> <feGaussianBlur stdDeviation="5" result="blur-4"></feGaussianBlur> <feFlood flood-color="#cfcfcf"></feFlood> <feComposite operator="in" in2="blur-4"></feComposite> <feComposite in="SourceGraphic"></feComposite> </filter> <filter id="Rectangle_1218" x="32" y="163" width="59" height="53" filterUnits="userSpaceOnUse"> <feOffset dy="2"></feOffset> <feGaussianBlur stdDeviation="5" result="blur-5"></feGaussianBlur> <feFlood flood-color="#cfcfcf"></feFlood> <feComposite operator="in" in2="blur-5"></feComposite> <feComposite in="SourceGraphic"></feComposite> </filter> <filter id="Rectangle_1214" x="32" y="202" width="59" height="53" filterUnits="userSpaceOnUse"> <feOffset dy="2"></feOffset> <feGaussianBlur stdDeviation="5" result="blur-6"></feGaussianBlur> <feFlood flood-color="#cfcfcf"></feFlood> <feComposite operator="in" in2="blur-6"></feComposite> <feComposite in="SourceGraphic"></feComposite> </filter> <filter id="Rectangle_1210" x="32" y="241" width="59" height="53" filterUnits="userSpaceOnUse"> <feOffset dy="2"></feOffset> <feGaussianBlur stdDeviation="5" result="blur-7"></feGaussianBlur> <feFlood flood-color="#cfcfcf"></feFlood> <feComposite operator="in" in2="blur-7"></feComposite> <feComposite in="SourceGraphic"></feComposite> </filter> <filter id="Rectangle_1206" x="32" y="280" width="59" height="53" filterUnits="userSpaceOnUse"> <feOffset dy="2"></feOffset> <feGaussianBlur stdDeviation="5" result="blur-8"></feGaussianBlur> <feFlood flood-color="#cfcfcf"></feFlood> <feComposite operator="in" in2="blur-8"></feComposite> <feComposite in="SourceGraphic"></feComposite> </filter> <filter id="Rectangle_1202" x="32" y="319" width="59" height="54" filterUnits="userSpaceOnUse"> <feOffset dy="2"></feOffset> <feGaussianBlur stdDeviation="5" result="blur-9"></feGaussianBlur> <feFlood flood-color="#cfcfcf"></feFlood> <feComposite operator="in" in2="blur-9"></feComposite> <feComposite in="SourceGraphic"></feComposite> </filter> <filter id="Rectangle_1198" x="32" y="359" width="59" height="53" filterUnits="userSpaceOnUse"> <feOffset dy="2"></feOffset> <feGaussianBlur stdDeviation="5" result="blur-10"></feGaussianBlur> <feFlood flood-color="#cfcfcf"></feFlood> <feComposite operator="in" in2="blur-10"></feComposite> <feComposite in="SourceGraphic"></feComposite> </filter> </defs> <g id="Group_834" data-name="Group 834" transform="translate(-22 -170)"> <rect id="Rectangle_2081" data-name="Rectangle 2081" width="276" height="421" transform="translate(22 170)" fill="#fafafa"></rect> <g transform="matrix(1, 0, 0, 1, 22, 170)" filter="url(#Rectangle_1233)"> <rect id="Rectangle_1233-2" data-name="Rectangle 1233" width="29" height="23" rx="5" transform="translate(47 19)" fill="#fff"></rect> </g> <g transform="matrix(1, 0, 0, 1, 22, 170)" filter="url(#Rectangle_1229)"> <rect id="Rectangle_1229-2" data-name="Rectangle 1229" width="29" height="23" rx="5" transform="translate(47 58)" fill="#fff"></rect> </g> <g transform="matrix(1, 0, 0, 1, 22, 170)" filter="url(#Rectangle_1225)"> <rect id="Rectangle_1225-2" data-name="Rectangle 1225" width="29" height="23" rx="5" transform="translate(47 97)" fill="#fff"></rect> </g> <g transform="matrix(1, 0, 0, 1, 22, 170)" filter="url(#Rectangle_1221)"> <rect id="Rectangle_1221-2" data-name="Rectangle 1221" width="29" height="24" rx="5" transform="translate(47 136)" fill="#fff"></rect> </g> <g transform="matrix(1, 0, 0, 1, 22, 170)" filter="url(#Rectangle_1218)"> <rect id="Rectangle_1218-2" data-name="Rectangle 1218" width="29" height="23" rx="5" transform="translate(47 176)" fill="#fff"></rect> </g> <g transform="matrix(1, 0, 0, 1, 22, 170)" filter="url(#Rectangle_1214)"> <rect id="Rectangle_1214-2" data-name="Rectangle 1214" width="29" height="23" rx="5" transform="translate(47 215)" fill="#fff"></rect> </g> <g transform="matrix(1, 0, 0, 1, 22, 170)" filter="url(#Rectangle_1210)"> <rect id="Rectangle_1210-2" data-name="Rectangle 1210" width="29" height="23" rx="5" transform="translate(47 254)" fill="#fff"></rect> </g> <g transform="matrix(1, 0, 0, 1, 22, 170)" filter="url(#Rectangle_1206)"> <rect id="Rectangle_1206-2" data-name="Rectangle 1206" width="29" height="23" rx="5" transform="translate(47 293)" fill="#fff"></rect> </g> <g transform="matrix(1, 0, 0, 1, 22, 170)" filter="url(#Rectangle_1202)"> <rect id="Rectangle_1202-2" data-name="Rectangle 1202" width="29" height="24" rx="5" transform="translate(47 332)" fill="#fff"></rect> </g> <g transform="matrix(1, 0, 0, 1, 22, 170)" filter="url(#Rectangle_1198)"> <rect id="Rectangle_1198-2" data-name="Rectangle 1198" width="29" height="23" rx="5" transform="translate(47 372)" fill="#fff"></rect> </g> <rect id="Rectangle_1232" data-name="Rectangle 1232" width="150" height="23" rx="5" transform="translate(101 189)" fill="#ebe7e7"></rect> <text id="Player_1_wallet" data-name="Player 1 wallet" transform="translate(171 205)" font-size="17" font-family="Roboto-Light, Roboto" font-weight="300"> <tspan x="-53.602" y="0">Player 1 wallet</tspan> </text> <rect id="Rectangle_1228" data-name="Rectangle 1228" width="150" height="23" rx="5" transform="translate(101 228)" fill="#ebe7e7"></rect> <text id="Player_2_wallet" data-name="Player 2 wallet" transform="translate(171 244)" font-size="17" font-family="Roboto-Light, Roboto" font-weight="300"> <tspan x="-53.602" y="0">Player 2 wallet</tspan> </text> <rect id="Rectangle_1224" data-name="Rectangle 1224" width="150" height="23" rx="5" transform="translate(101 267)" fill="#ebe7e7"></rect> <text id="Player_3_wallet" data-name="Player 3 wallet" transform="translate(171 284)" font-size="17" font-family="Roboto-Light, Roboto" font-weight="300"> <tspan x="-53.602" y="0">Player 3 wallet</tspan> </text> <rect id="Rectangle_1220" data-name="Rectangle 1220" width="150" height="24" rx="5" transform="translate(101 306)" fill="#ebe7e7"></rect> <text id="Player_4_wallet" data-name="Player 4 wallet" transform="translate(171 323)" font-size="17" font-family="Roboto-Light, Roboto" font-weight="300"> <tspan x="-53.602" y="0">Player 4 wallet</tspan> </text> <rect id="Rectangle_1217" data-name="Rectangle 1217" width="150" height="23" rx="5" transform="translate(101 346)" fill="#ebe7e7"></rect> <text id="Player_5_wallet" data-name="Player 5 wallet" transform="translate(171 362)" font-size="17" font-family="Roboto-Light, Roboto" font-weight="300"> <tspan x="-53.602" y="0">Player 5 wallet</tspan> </text> <rect id="Rectangle_1213" data-name="Rectangle 1213" width="150" height="23" rx="5" transform="translate(101 385)" fill="#ebe7e7"></rect> <text id="Player_6_wallet" data-name="Player 6 wallet" transform="translate(171 401)" font-size="17" font-family="Roboto-Light, Roboto" font-weight="300"> <tspan x="-53.602" y="0">Player 6 wallet</tspan> </text> <rect id="Rectangle_1209" data-name="Rectangle 1209" width="150" height="23" rx="5" transform="translate(101 424)" fill="#ebe7e7"></rect> <text id="Player_7_wallet" data-name="Player 7 wallet" transform="translate(171 440)" font-size="17" font-family="Roboto-Light, Roboto" font-weight="300"> <tspan x="-53.602" y="0">Player 7 wallet</tspan> </text> <rect id="Rectangle_1205" data-name="Rectangle 1205" width="150" height="23" rx="5" transform="translate(101 463)" fill="#ebe7e7"></rect> <text id="Player_8_wallet" data-name="Player 8 wallet" transform="translate(171 480)" font-size="17" font-family="Roboto-Light, Roboto" font-weight="300"> <tspan x="-53.602" y="0">Player 8 wallet</tspan> </text> <rect id="Rectangle_1201" data-name="Rectangle 1201" width="150" height="24" rx="5" transform="translate(101 502)" fill="#ebe7e7"></rect> <text id="Player_9_wallet" data-name="Player 9 wallet" transform="translate(171 519)" font-size="17" font-family="Roboto-Light, Roboto" font-weight="300"> <tspan x="-53.602" y="0">Player 9 wallet</tspan> </text> <rect id="Rectangle_1197" data-name="Rectangle 1197" width="150" height="23" rx="5" transform="translate(101 542)" fill="#ebe7e7"></rect> <text id="Player_10_wallet" data-name="Player 10 wallet" transform="translate(171 558)" font-size="17" font-family="Roboto-Light, Roboto" font-weight="300"> <tspan x="-58.313" y="0">Player 10 wallet</tspan> </text> <text id="_1" data-name="1" transform="translate(84 244)" font-size="15" font-family="Roboto-Light, Roboto" font-weight="300"> <tspan x="-4.156" y="0">1</tspan> </text> <text id="_0" data-name="0" transform="translate(84 205)" font-size="15" font-family="Roboto-Light, Roboto" font-weight="300"> <tspan x="-4.156" y="0">0</tspan> </text> <text id="_2" data-name="2" transform="translate(84 284)" font-size="15" font-family="Roboto-Light, Roboto" font-weight="300"> <tspan x="-4.156" y="0">2</tspan> </text> <text id="_3" data-name="3" transform="translate(84 323)" font-size="15" font-family="Roboto-Light, Roboto" font-weight="300"> <tspan x="-4.156" y="0">3</tspan> </text> <text id="_4" data-name="4" transform="translate(84 362)" font-size="15" font-family="Roboto-Light, Roboto" font-weight="300"> <tspan x="-4.156" y="0">4</tspan> </text> <text id="_5" data-name="5" transform="translate(84 401)" font-size="15" font-family="Roboto-Light, Roboto" font-weight="300"> <tspan x="-4.156" y="0">5</tspan> </text> <text id="_6" data-name="6" transform="translate(84 440)" font-size="15" font-family="Roboto-Light, Roboto" font-weight="300"> <tspan x="-4.156" y="0">6</tspan> </text> <text id="_7" data-name="7" transform="translate(84 480)" font-size="15" font-family="Roboto-Light, Roboto" font-weight="300"> <tspan x="-4.156" y="0">7</tspan> </text> <text id="_8" data-name="8" transform="translate(84 519)" font-size="15" font-family="Roboto-Light, Roboto" font-weight="300"> <tspan x="-4.156" y="0">8</tspan> </text> <text id="_9" data-name="9" transform="translate(84 558)" font-size="15" font-family="Roboto-Light, Roboto" font-weight="300"> <tspan x="-4.156" y="0">9</tspan> </text> </g> </svg> 