<?xml version="1.0" encoding="UTF-8"?> <svg xmlns="http://www.w3.org/2000/svg" width="126" height="38.303" viewBox="0 0 126 38.303"> <g id="Group_746" data-name="Group 746" transform="translate(-25 -9.668)"> <g id="Лого" transform="translate(-3201.197 9901.732)"> <g id="Group_584" data-name="Group 584" transform="translate(3227.691 -9891.035)"> <path id="Path_648" data-name="Path 648" d="M3237.976-9777.628l10.774-5.109,10.774,5.109-10.774,6.571Z" transform="translate(-3237.976 9795.574)" fill="#5b5b5b" fill-rule="evenodd"></path> <path id="Path_649" data-name="Path 649" d="M3248.75-9883.943,3237.976-9866l10.774-5.11,10.774,5.11Z" transform="translate(-3237.976 9883.943)" fill="#b2b3b3" fill-rule="evenodd"></path> <path id="Path_650" data-name="Path 650" d="M3237.976-9724.9l10.774,6.572,10.774-6.572-10.774,15.436Z" transform="translate(-3237.976 9745.076)" fill="#b2b3b3" fill-rule="evenodd"></path> </g> <path id="Path_651" data-name="Path 651" d="M3238.465-9872.913v-19.151h-1.9V-9889h-2.417v3.576h-2.159v3.575h-2.159s.54,2.683,0,3.576-2.159,0-2.159,0v3.574H3226.2v3.576h1.472v3.576h2.159v3.574h2.159v3.576h2.159v3.576h2.331l.086,3.062h3.8v-3.062h2.417v-3.576h2.159v-3.576h2.159v-3.574Z" fill="#696968" fill-rule="evenodd"></path> <path id="Path_652" data-name="Path 652" d="M3307.925-9892.064v20.365l10.538,6.366v-2.217l-8.637-5.363v-19.151Z" transform="translate(-71.361)" fill="#68c5f0" fill-rule="evenodd"></path> </g> <text id="ETHERTIME" transform="translate(60 35)" font-size="17" font-family="Roboto-Light, Roboto, Open Sans" font-weight="300"> <tspan x="0" y="0">ETHERTIME</tspan> </text> </g> </svg> 